<svg data-v-0dd9719b="" version="1.0" xmlns="http://www.w3.org/2000/svg" xmlns:xlink="http://www.w3.org/1999/xlink" width="100%" height="100%" viewBox="0 0 340.000000 250.000000" preserveAspectRatio="xMidYMid meet" color-interpolation-filters="sRGB" style="margin: auto;"> <rect data-v-0dd9719b="" x="0" y="0" width="100%" height="100%" fill="#fff" fill-opacity="1" class="background"></rect> <rect data-v-0dd9719b="" x="0" y="0" width="100%" height="100%" fill="url(#watermark)" fill-opacity="1" class="watermarklayer"></rect> <g data-v-0dd9719b="" fill="#ffd700" class="icon-text-wrapper icon-svg-group iconsvg" transform="translate(56.78168487548828,95)"><g class="iconsvg-imagesvg" transform="translate(0,0)"><g><rect fill="#ffd700" fill-opacity="0" stroke-width="2" x="0" y="0" width="60" height="60" class="image-rect"></rect> <svg x="0" y="0" width="60" height="60" filtersec="colorsb9861944427" class="image-svg-svg primary" style="overflow: visible;"><svg version="1.1" id="图层_1" xmlns="http://www.w3.org/2000/svg" xmlns:xlink="http://www.w3.org/1999/xlink" x="0px" y="0px" viewBox="1 1.5099983215332031 104.49000549316406 104.49000549316406" enable-background="new 0 0 106 107" xml:space="preserve">
<g>
	<path fill="#F29600" d="M53.18,11.76c0.02,0,0.04,0,0.06,0c23.16,0,42,18.84,42,42c0,23.16-18.84,41.99-42,41.99
		c-23.15,0-42-18.84-42-41.99l0,0H1l0,0C1,82.57,24.43,106,53.24,106c28.81,0,52.25-23.43,52.25-52.24
		c0-28.81-23.44-52.25-52.25-52.25c-0.02,0-0.04,0-0.06,0V11.76z"></path>
	<path fill="#FFD700" d="M53.3,81.22c-0.02,0-0.04,0-0.06,0c-15.14,0-27.46-12.32-27.46-27.46c0-15.15,12.32-27.46,27.46-27.46
		c15.15,0,27.47,12.32,27.47,27.46l0,0h10.24l0,0c0-20.8-16.92-37.71-37.71-37.71S15.53,32.96,15.53,53.76
		c0,20.79,16.92,37.71,37.71,37.71c0.02,0,0.04-0.01,0.06-0.01V81.22z"></path>
	<path fill="#F29600" d="M69.3,37.7c-4.29-4.29-9.99-6.66-16.06-6.66V41.3c6.88,0,12.46,5.59,12.46,12.46
		c0,6.87-5.58,12.45-12.46,12.45c-6.87,0-12.46-5.59-12.46-12.45c0-0.02,0-0.04,0-0.07H30.54c0,0.02,0,0.04,0,0.07
		c0,12.52,10.18,22.7,22.7,22.7c6.07,0,11.77-2.36,16.06-6.65c4.29-4.29,6.65-9.99,6.65-16.05C75.95,47.69,73.59,41.99,69.3,37.7z"></path>
</g>
</svg></svg> <!----></g></g> <g transform="translate(67,6.4459381103515625)"><g data-gra="path-name" fill-rule="" class="tp-name iconsvg-namesvg" transform="translate(0,0)"><g transform="scale(1)"><g><path d="M15.66-30.87L16.06-30.33C16.38-29.92 16.43-29.52 16.2-29.07L13.23-22.99C13-22.54 12.69-22.32 12.2-22.32L4.18-22.32C3.33-22.32 2.83-21.82 2.83-20.97L2.88-19.3C2.88-18.4 3.38-17.95 4.23-17.95L9.58-17.95C10.26-17.95 10.57-17.5 10.26-16.88L2.65-1.17C2.21-0.22 2.61 0.4 3.65 0.4L10.17 0.4C10.93 0.4 11.47 0.09 11.79-0.58L19.84-17.28C20.07-17.77 20.25-17.95 20.38-17.95 20.52-17.95 20.65-17.77 20.88-17.32L29.61-0.58C29.97 0.09 30.46 0.4 31.18 0.4L37.71 0.4C38.74 0.4 39.15-0.32 38.66-1.21L30.46-16.88C30.15-17.5 30.46-17.95 31.14-17.95L36.59-17.95C37.44-17.95 37.93-18.45 37.93-19.3L37.89-20.97C37.89-21.87 37.39-22.32 36.54-22.32L23.49-22.32C22.81-22.32 22.5-22.77 22.81-23.4L26.23-30.42C26.68-31.36 26.28-31.99 25.24-31.99L16.88-31.99C15.75-31.99 15.21-31.5 15.66-30.87ZM56.47-16.38L63.63-16.38C64.22-16.38 64.53-16.06 64.53-15.48L64.58-14.17C64.58-13.59 64.26-13.28 63.67-13.28L56.25-13.28C55.39-13.28 54.9-12.78 54.9-11.92L54.9-10.48C54.9-9.63 55.39-9.13 56.25-9.13L63.67-9.13C64.26-9.13 64.58-8.82 64.58-8.23L64.58-7.15C64.58-6.3 65.07-5.8 65.92-5.8L71.1-5.8C71.95-5.8 72.45-6.3 72.45-7.15L72.45-8.23C72.45-8.82 72.77-9.13 73.35-9.13L78.48-9.13C79.33-9.13 79.83-9.63 79.83-10.48L79.83-11.92C79.83-12.78 79.33-13.28 78.48-13.28L73.35-13.28C72.77-13.28 72.45-13.59 72.45-14.17L72.45-15.48C72.45-16.06 72.77-16.38 73.35-16.38L77.58-16.38C78.44-16.38 78.93-16.88 78.93-17.73L78.93-18.95C78.93-19.8 78.44-20.29 77.58-20.29L73.35-20.29C72.77-20.29 72.45-20.61 72.45-21.2L72.45-22.18C72.45-23.04 71.95-23.54 71.1-23.54L66.38-23.54C65.52-23.54 65.03-23.04 65.03-22.18L65.03-21.2C65.03-20.61 64.71-20.29 64.13-20.29L63.31-20.29C62.64-20.29 62.37-20.7 62.64-21.33L64.03-24.39C64.26-24.88 64.58-25.06 65.07-25.06L77.89-25.06C78.75-25.06 79.25-25.56 79.25-26.41L79.25-27.99C79.25-28.84 78.75-29.34 77.89-29.34L67.55-29.34C66.87-29.34 66.55-29.79 66.87-30.42L67-30.64C67.36-31.41 66.91-31.95 65.88-31.95L60.39-31.95C59.31-31.95 58.91-31.23 59.44-30.33 59.58-30.06 59.63-29.88 59.53-29.65 59.44-29.43 59.13-29.34 58.63-29.34L56.47-29.34C55.62-29.34 55.13-28.84 55.13-27.99L55.13-26.41C55.13-25.56 55.62-25.06 56.47-25.06 56.92-25.06 57.02-24.61 56.7-23.98L55.48-21.46C55.21-20.93 55.13-20.43 55.13-19.8L55.13-17.73C55.13-16.88 55.62-16.38 56.47-16.38ZM51.93-1.03C52.11-1.44 52.47-1.62 53.01-1.44L55.98-0.58C56.56-0.4 57.06-0.36 57.64-0.36L78.88-0.36C79.74-0.36 80.23-0.85 80.23-1.71L80.23-3.38C80.23-4.23 79.74-4.72 78.88-4.72L60.34-4.72C59.94-4.72 59.63-4.77 59.27-4.86L54.13-6.25C53.64-6.39 53.37-6.75 53.37-7.29L53.37-22.95C53.37-23.8 52.88-24.3 52.02-24.3L45.31-24.3C44.46-24.3 43.96-23.8 43.96-22.95L43.96-21.38C43.96-20.52 44.46-20.02 45.31-20.02 45.54-20.02 45.67-19.71 45.67-19.13L45.67-5.22C45.67-4.81 45.59-4.5 45.45-4.09L44.59-1.93C44.23-0.99 44.64-0.36 45.63-0.36L50.53-0.36C51.3-0.36 51.75-0.58 51.93-1.03ZM44.86-29.56L46.08-27C46.39-26.28 46.89-26.01 47.66-26.01L51.61-26.01C52.65-26.01 53.1-26.64 52.65-27.58L51.44-30.15C51.12-30.87 50.58-31.14 49.81-31.14L45.85-31.14C44.82-31.14 44.41-30.51 44.86-29.56ZM85.09-10.98L85.09-9.4C85.09-8.55 85.59-8.05 86.44-8.05L98.28-8.05C98.86-8.05 99.18-7.74 99.18-7.15L99.18-0.94C99.18-0.09 99.67 0.4 100.53 0.4L106.38 0.4C107.23 0.4 107.73-0.09 107.73-0.94L107.73-7.15C107.73-7.74 108.04-8.05 108.63-8.05L121.36-8.05C122.22-8.05 122.72-8.55 122.72-9.4L122.72-10.98C122.72-11.83 122.22-12.33 121.36-12.33L108.63-12.33C108.04-12.33 107.73-12.64 107.73-13.18 107.73-13.72 107.23-14.04 106.38-14.04L100.53-14.04C99.67-14.04 99.18-13.54 99.18-12.69 99.18-12.46 98.86-12.33 98.28-12.33L86.44-12.33C85.59-12.33 85.09-11.83 85.09-10.98ZM119.56-29.2L113.4-28.26C112.81-28.17 112.41-28.53 112.41-29.11L112.45-30.64C112.45-31.5 111.96-31.99 111.1-31.99L104.13-31.99C103.05-31.99 102.64-31.27 103.23-30.38L103.59-29.79C103.81-29.38 103.91-29.11 103.91-28.71L103.91-27.63C103.91-27.09 103.63-26.73 103.09-26.64L100.03-26.19C99.22-26.05 98.77-25.56 98.77-24.75L98.77-23.18C98.77-22.27 99.31-21.82 100.22-21.96L102.96-22.36C103.55-22.45 103.91-22.09 103.91-21.51L103.91-17.1C103.91-16.25 104.4-15.75 105.25-15.75L120.51-15.75C121.36-15.75 121.86-16.25 121.86-17.1L121.86-20.84C121.86-22.05 121.05-22.36 120.19-21.51L119.16-20.47C118.8-20.11 118.53-20.02 118.08-20.02L113.35-20.02C112.77-20.02 112.45-20.34 112.45-20.93L112.45-22.99C112.45-23.54 112.72-23.89 113.27-23.98L119.75-24.97C120.55-25.11 121-25.61 121-26.41L121-27.95C121-28.84 120.47-29.34 119.56-29.2ZM95.58-31.63L87.12-29.7C86.35-29.52 85.95-29.02 85.95-28.21L85.95-26.68C85.95-25.74 86.53-25.29 87.44-25.52L87.52-25.52C88.11-25.65 88.52-25.38 88.52-24.75L88.52-17.1C88.52-16.25 89.01-15.75 89.86-15.75L95.72-15.75C96.57-15.75 97.06-16.25 97.06-17.1L97.06-30.46C97.06-31.41 96.48-31.86 95.58-31.63ZM128.74-29.97L128.74-28.17C128.74-27.31 129.24-26.82 130.09-26.82L149.67-26.82C150.48-26.82 150.66-26.23 150.07-25.7L128.66-6.71C128.11-6.21 127.89-5.71 127.89-5.04L127.89-1.75C127.89-0.9 128.38-0.4 129.24-0.4L160.56-0.4C161.41-0.4 161.91-0.9 161.91-1.75L161.91-5.85C161.91-7.06 161.1-7.38 160.25-6.52L159.21-5.49C158.85-5.13 158.58-5.04 158.13-5.04L139.09-5.04C138.28-5.04 138.06-5.58 138.69-6.17L160.38-25.47C160.92-25.96 161.14-26.46 161.14-27.13L161.14-29.97C161.14-30.82 160.65-31.32 159.79-31.32L130.09-31.32C129.24-31.32 128.74-30.82 128.74-29.97Z" transform="translate(-2.4733705520629883, 31.989999771118164)"></path></g> <!----> <!----> <!----> <!----> <!----> <!----> <!----></g></g> <g data-gra="path-slogan" fill-rule="" class="tp-slogan iconsvg-slogansvg" fill="#ffd700" transform="translate(39.21831512451172,38.38999938964844)"><!----> <!----> <g transform="scale(1, 1)"><g transform="scale(1)"><path d="M4.41 0L0.94 0L0.94-8.58L4.45-8.58Q7.92-8.39 8.06-4.41L8.06-4.41Q7.88-0.09 4.41 0L4.41 0ZM4.27-7.64L2.11-7.64L2.11-0.98L4.36-0.98Q6.80-1.13 6.89-4.31L6.89-4.31Q6.84-7.55 4.27-7.64L4.27-7.64ZM15.19 0L14.34-2.48L10.88-2.48L9.98 0L8.81 0L12.05-8.58L13.36-8.58L16.45 0L15.19 0ZM12.61-7.31L11.25-3.52L13.92-3.52L12.66-7.31L12.61-7.31ZM17.48-8.58L18.66-8.58L18.66-1.03L23.02-1.03L23.02 0L17.48 0L17.48-8.58ZM24.33-8.58L25.50-8.58L25.50 0L24.33 0L24.33-8.58ZM33.14 0L32.30-2.48L28.83-2.48L27.94 0L26.77 0L30-8.58L31.31-8.58L34.41 0L33.14 0ZM30.56-7.31L29.20-3.52L31.88-3.52L30.61-7.31L30.56-7.31ZM36.84-8.58L41.16-1.64L41.16-8.58L42.28-8.58L42.28 0L40.97 0L36.61-6.94L36.56-6.94L36.56 0L35.44 0L35.44-8.58L36.84-8.58ZM48.56-5.06L53.06-5.06L53.06-8.58L54.23-8.58L54.23 0L53.06 0L53.06-3.98L48.56-3.98L48.56 0L47.39 0L47.39-8.58L48.56-8.58L48.56-5.06ZM61.69-3.19L61.69-8.58L62.86-8.58L62.86-3.05Q62.72 0.05 59.34 0.14L59.34 0.14Q56.20 0.05 56.06-2.86L56.06-2.86L56.06-8.58L57.23-8.58L57.23-3.19Q57.28-0.84 59.39-0.80L59.39-0.80Q61.69-0.84 61.69-3.19L61.69-3.19ZM70.31 0L69.47-2.48L66-2.48L65.11 0L63.94 0L67.17-8.58L68.48-8.58L71.58 0L70.31 0ZM67.73-7.31L66.38-3.52L69.05-3.52L67.78-7.31L67.73-7.31ZM79.55-8.58L76.31-3.47L76.31 0L75.14 0L75.14-3.47L71.91-8.58L73.27-8.58L75.70-4.45L78.19-8.58L79.55-8.58ZM80.77-8.58L81.94-8.58L81.94 0L80.77 0L80.77-8.58Z" transform="translate(-0.9375, 8.578125)"></path></g></g></g></g></g><defs v-gra="od"></defs></svg>